<svg
  xmlns="http://www.w3.org/2000/svg"
  version="1.1"
  xmlns:xlink="http://www.w3.org/1999/xlink"
  xmlns:svgjs="http://svgjs.dev/svgjs"
  width="512"
  height="512"
  viewBox="0 0 2000 1247"><g transform="matrix(1,0,0,1,-1.2121212121212466,0.5048582995952984)"><svg
      viewBox="0 0 396 247"
      data-background-color="#f7f6f1"
      preserveAspectRatio="xMidYMid meet"
      height="1247"
      width="2000"
      xmlns="http://www.w3.org/2000/svg"
      xmlns:xlink="http://www.w3.org/1999/xlink"><g
        id="tight-bounds"
        transform="matrix(1,0,0,1,0.2400000000000091,-0.09999999999999432)"><svg
          viewBox="0 0 395.52 247.2"
          height="247.2"
          width="395.52"><g><svg /></g><g><svg
              viewBox="0 0 395.52 247.2"
              height="247.2"
              width="395.52"><g transform="matrix(1,0,0,1,75.54432,50.878554088038754)"><svg
                  viewBox="0 0 244.43135999999998 145.44289182392248"
                  height="145.44289182392248"
                  width="244.43135999999998"><g><svg
                      viewBox="0 0 244.43135999999998 145.44289182392248"
                      height="145.44289182392248"
                      width="244.43135999999998"><g><svg
                          viewBox="0 0 244.43135999999998 145.44289182392248"
                          height="145.44289182392248"
                          width="244.43135999999998"><g><svg
                              viewBox="0 0 244.43135999999998 145.44289182392248"
                              height="145.44289182392248"
                              width="244.43135999999998"><g id="textblocktransform"><svg
                                  viewBox="0 0 244.43135999999998 145.44289182392248"
                                  height="145.44289182392248"
                                  width="244.43135999999998"
                                  id="textblock"><g><svg
                                      viewBox="0 0 244.43135999999998 145.44289182392248"
                                      height="145.44289182392248"
                                      width="244.43135999999998"><g
                                        transform="matrix(1,0,0,1,0,0)"><svg
                                          width="244.43135999999998"
                                          viewBox="0.34375 -39.95 67.89623485759999 40.400000000000006"
                                          height="145.44289182392248"
                                          data-palette-color="#1f7a8c"><path
                                            d="M28.15-1.2L17.15-34.8 6.2-1.2 6.2-1.25Q5.9-0.5 5.38-0.03 4.85 0.45 4.1 0.45L4.1 0.45Q3.7 0.45 3.33 0.38 2.95 0.3 2.55 0.2L2.55 0.2 2.6 0.2Q-0.25-0.7 0.5-3L0.5-3 11.9-37.65Q12.15-38.45 12.78-39 13.4-39.55 14.25-39.65L14.25-39.65Q15.1-39.8 15.9-39.88 16.7-39.95 17.15-39.95L17.15-39.95Q17.6-39.95 18.4-39.88 19.2-39.8 20.05-39.7L20.05-39.7Q20.75-39.6 21.43-38.95 22.1-38.3 22.45-37.65L22.45-37.65Q25.25-29.05 28.13-20.33 31-11.6 33.8-3L33.8-3Q34.5-0.7 31.7 0.2L31.7 0.2Q31.3 0.3 30.98 0.38 30.65 0.45 30.25 0.45L30.25 0.45Q29.55 0.45 28.98-0.03 28.4-0.5 28.15-1.25L28.15-1.25 28.15-1.2ZM20.9-12L20.9-12Q20.9-10.4 19.78-9.28 18.65-8.15 17.05-8.15L17.05-8.15Q15.45-8.15 14.35-9.28 13.25-10.4 13.25-12L13.25-12Q13.25-13.6 14.35-14.73 15.45-15.85 17.05-15.85L17.05-15.85Q18.65-15.85 19.78-14.73 20.9-13.6 20.9-12ZM62.45-1.2L51.45-34.8 40.5-1.2 40.5-1.25Q40.2-0.5 39.67-0.03 39.15 0.45 38.4 0.45L38.4 0.45Q38 0.45 37.62 0.38 37.25 0.3 36.85 0.2L36.85 0.2 36.9 0.2Q34.05-0.7 34.8-3L34.8-3 46.2-37.65Q46.45-38.45 47.07-39 47.7-39.55 48.55-39.65L48.55-39.65Q49.4-39.8 50.2-39.88 51-39.95 51.45-39.95L51.45-39.95Q51.9-39.95 52.7-39.88 53.5-39.8 54.35-39.7L54.35-39.7Q55.05-39.6 55.72-38.95 56.4-38.3 56.75-37.65L56.75-37.65Q59.55-29.05 62.42-20.33 65.3-11.6 68.1-3L68.1-3Q68.8-0.7 66 0.2L66 0.2Q65.6 0.3 65.27 0.38 64.95 0.45 64.55 0.45L64.55 0.45Q63.85 0.45 63.27-0.03 62.7-0.5 62.45-1.25L62.45-1.25 62.45-1.2ZM55.2-12L55.2-12Q55.2-10.4 54.07-9.28 52.95-8.15 51.35-8.15L51.35-8.15Q49.75-8.15 48.65-9.28 47.55-10.4 47.55-12L47.55-12Q47.55-13.6 48.65-14.73 49.75-15.85 51.35-15.85L51.35-15.85Q52.95-15.85 54.07-14.73 55.2-13.6 55.2-12Z"
                                            opacity="1"
                                            transform="matrix(1,0,0,1,0,0)"
                                            fill="#1f7a8c"
                                            class="wordmark-text-0"
                                            data-fill-palette-color="primary"
                                            id="text-0"
                                          /></svg></g></svg></g></svg></g></svg></g></svg></g></svg></g></svg></g><g><path
                  d="M245.816 0c68.262 0 123.6 55.338 123.6 123.6 0 68.262-55.338 123.6-123.6 123.6-32.846 0-62.699-12.812-84.835-33.711h9.872c20.305 16.952 46.443 27.153 74.963 27.153 64.64 0 117.042-52.401 117.042-117.042 0-64.64-52.401-117.042-117.042-117.042-28.52 0-54.657 10.201-74.963 27.153l-9.872 0c22.136-20.899 51.989-33.711 84.835-33.711z"
                  fill="#1f7a8c"
                  stroke="transparent"
                  data-fill-palette-color="tertiary"
                /></g></svg></g><defs /></svg><rect
          width="395.52"
          height="247.2"
          fill="none"
          stroke="none"
          visibility="hidden"
        /></g></svg></g></svg>
